REM DIRINDEX 1\2\4,1\2\5,1\2\6,1\3\7,1\3\8,1\3\9,1\3\10
REM DIRNAME folder01,folder02,folder03,folder04,folder05,folder06,folder07,folder08,folder09,folder10
TITLE ""
FILE "b_142.mp3" MP3
  TRACK 01 AUDIO
    TITLE "0:"
    INDEX 01 00:00:00
  TRACK 02 AUDIO
    TITLE "7:cjc057_08695"
    INDEX 01 00:00:13
  TRACK 03 AUDIO
    TITLE "0:"
    INDEX 01 00:01:40
  TRACK 04 AUDIO
    TITLE "8:cjc057_08696"
    INDEX 01 00:01:73
  TRACK 05 AUDIO
    TITLE "0:"
    INDEX 01 00:05:14
  TRACK 06 AUDIO
    TITLE "9:cjc057_08697"
    INDEX 01 00:05:57
  TRACK 07 AUDIO
    TITLE "0:"
    INDEX 01 00:09:40
  TRACK 08 AUDIO
    TITLE "7:cjc057_08698"
    INDEX 01 00:10:47
  TRACK 09 AUDIO
    TITLE "0:"
    INDEX 01 00:12:01
  TRACK 10 AUDIO
    TITLE "8:cjc057_08699"
    INDEX 01 00:12:26
  TRACK 11 AUDIO
    TITLE "0:"
    INDEX 01 00:14:17
  TRACK 12 AUDIO
    TITLE "9:cjc057_08700"
    INDEX 01 00:14:60
  TRACK 13 AUDIO
    TITLE "0:"
    INDEX 01 00:17:70
  TRACK 14 AUDIO
    TITLE "7:cjc057_08701"
    INDEX 01 00:18:74
  TRACK 15 AUDIO
    TITLE "0:"
    INDEX 01 00:20:22
  TRACK 16 AUDIO
    TITLE "8:cjc057_08702"
    INDEX 01 00:20:49
  TRACK 17 AUDIO
    TITLE "0:"
    INDEX 01 00:23:32
  TRACK 18 AUDIO
    TITLE "9:cjc057_08703"
    INDEX 01 00:24:00
  TRACK 19 AUDIO
    TITLE "0:"
    INDEX 01 00:26:66
  TRACK 20 AUDIO
    TITLE "7:cjc057_08704"
    INDEX 01 00:27:73
  TRACK 21 AUDIO
    TITLE "0:"
    INDEX 01 00:29:29
  TRACK 22 AUDIO
    TITLE "8:cjc057_08705"
    INDEX 01 00:29:60
  TRACK 23 AUDIO
    TITLE "0:"
    INDEX 01 00:32:07
  TRACK 24 AUDIO
    TITLE "9:cjc057_08706"
    INDEX 01 00:32:54
  TRACK 25 AUDIO
    TITLE "0:"
    INDEX 01 00:37:34
  TRACK 26 AUDIO
    TITLE "7:cjc057_08707"
    INDEX 01 00:38:39
  TRACK 27 AUDIO
    TITLE "0:"
    INDEX 01 00:39:74
  TRACK 28 AUDIO
    TITLE "8:cjc057_08708"
    INDEX 01 00:40:26
  TRACK 29 AUDIO
    TITLE "0:"
    INDEX 01 00:41:71
  TRACK 30 AUDIO
    TITLE "9:cjc057_08709"
    INDEX 01 00:42:41
  TRACK 31 AUDIO
    TITLE "0:"
    INDEX 01 00:45:53
  TRACK 32 AUDIO
    TITLE "7:cjc057_08710"
    INDEX 01 00:46:58
  TRACK 33 AUDIO
    TITLE "0:"
    INDEX 01 00:48:04
  TRACK 34 AUDIO
    TITLE "8:cjc057_08711"
    INDEX 01 00:48:38
  TRACK 35 AUDIO
    TITLE "0:"
    INDEX 01 00:51:20
  TRACK 36 AUDIO
    TITLE "9:cjc057_08712"
    INDEX 01 00:51:60
  TRACK 37 AUDIO
    TITLE "0:"
    INDEX 01 00:56:16
  TRACK 38 AUDIO
    TITLE "7:cjc057_08713"
    INDEX 01 00:57:23
  TRACK 39 AUDIO
    TITLE "0:"
    INDEX 01 00:58:50
  TRACK 40 AUDIO
    TITLE "8:cjc057_08714"
    INDEX 01 00:59:02
  TRACK 41 AUDIO
    TITLE "0:"
    INDEX 01 01:01:19
  TRACK 42 AUDIO
    TITLE "9:cjc057_08715"
    INDEX 01 01:01:64
  TRACK 43 AUDIO
    TITLE "0:"
    INDEX 01 01:05:40
  TRACK 44 AUDIO
    TITLE "7:cjc057_08716"
    INDEX 01 01:06:45
  TRACK 45 AUDIO
    TITLE "0:"
    INDEX 01 01:07:66
  TRACK 46 AUDIO
    TITLE "8:cjc057_08717"
    INDEX 01 01:08:23
  TRACK 47 AUDIO
    TITLE "0:"
    INDEX 01 01:11:25
  TRACK 48 AUDIO
    TITLE "9:cjc057_08718"
    INDEX 01 01:11:62
  TRACK 49 AUDIO
    TITLE "0:"
    INDEX 01 01:13:73
  TRACK 50 AUDIO
    TITLE "7:cjc057_08719"
    INDEX 01 01:15:03
  TRACK 51 AUDIO
    TITLE "0:"
    INDEX 01 01:16:16
  TRACK 52 AUDIO
    TITLE "8:cjc057_08720"
    INDEX 01 01:16:50
  TRACK 53 AUDIO
    TITLE "0:"
    INDEX 01 01:19:17
  TRACK 54 AUDIO
    TITLE "9:cjc057_08721"
    INDEX 01 01:19:60
  TRACK 55 AUDIO
    TITLE "0:"
    INDEX 01 01:22:35
  TRACK 56 AUDIO
    TITLE "7:cjc057_08722"
    INDEX 01 01:23:42
  TRACK 57 AUDIO
    TITLE "0:"
    INDEX 01 01:24:71
  TRACK 58 AUDIO
    TITLE "8:cjc057_08723"
    INDEX 01 01:25:27
  TRACK 59 AUDIO
    TITLE "0:"
    INDEX 01 01:28:47
  TRACK 60 AUDIO
    TITLE "9:cjc057_08724"
    INDEX 01 01:29:11
  TRACK 61 AUDIO
    TITLE "0:"
    INDEX 01 01:32:43
  TRACK 62 AUDIO
    TITLE "7:cjc057_08725"
    INDEX 01 01:33:52
  TRACK 63 AUDIO
    TITLE "0:"
    INDEX 01 01:34:71
  TRACK 64 AUDIO
    TITLE "8:cjc057_08726"
    INDEX 01 01:35:26
  TRACK 65 AUDIO
    TITLE "0:"
    INDEX 01 01:36:64
  TRACK 66 AUDIO
    TITLE "9:cjc057_08727"
    INDEX 01 01:37:32
  TRACK 67 AUDIO
    TITLE "0:"
    INDEX 01 01:40:62
  TRACK 68 AUDIO
    TITLE "7:cjc057_08728"
    INDEX 01 01:41:71
  TRACK 69 AUDIO
    TITLE "0:"
    INDEX 01 01:43:13
  TRACK 70 AUDIO
    TITLE "8:cjc057_08729"
    INDEX 01 01:43:47
  TRACK 71 AUDIO
    TITLE "0:"
    INDEX 01 01:45:28
  TRACK 72 AUDIO
    TITLE "9:cjc057_08730"
    INDEX 01 01:45:73
  TRACK 73 AUDIO
    TITLE "0:"
    INDEX 01 01:49:10
